<svg height="500px" viewBox="0 0 341 341" width="500px" xmlns="http://www.w3.org/2000/svg">
    <path d="M 176.00,0.21
           C 193.89,0.03 215.28,5.09 232.00,11.32
             250.40,18.18 268.31,29.02 283.00,42.05
             334.04,87.30 354.30,158.97 332.65,224.00
             324.22,249.29 310.93,270.47 292.83,289.99
             282.15,301.50 263.02,314.84 249.00,322.22
             222.01,336.43 193.18,341.35 163.00,341.00
             147.75,340.82 125.29,335.82 111.00,330.42
             88.31,321.86 67.46,308.89 50.04,291.91
             43.43,285.47 34.21,273.77 29.00,266.00
             -4.99,215.23 -9.11,152.32 16.31,97.00
             35.56,55.09 73.52,22.83 117.00,8.35
             131.29,3.59 142.49,2.49 157.00,0.21
             157.00,0.21 176.00,0.21 176.00,0.21 Z" fill="#d0ecf8" id="circle" />

    <path d="M 84.27,255.00
           C 99.55,270.18 94.00,265.00 129.09,238.27
             153.62,221.12 160.75,244.25 146.00,260.33
             120.62,286.88 116.25,293.38 93.41,322.71
             77.52,314.72 62.86,304.40 50.04,291.91
             43.43,285.47 34.21,273.77 29.00,266.00
             24.58,259.40 20.67,252.59 17.26,245.63
             47.18,222.55 51.27,219.73 78.64,193.73
             102.36,173.91 116.91,193.64 98.24,214.24
             74.00,241.75 71.00,239.88 84.27,255.00 Z" fill="#fcb4da" id="sumomo" />

    <path d="M 17.26,245.63
           C 47.18,222.55 51.27,219.73 78.64,193.73
             102.36,173.91 116.91,193.64 98.24,214.24
             74.00,241.75 71.00,239.88 84.27,255.00
             99.55,270.18 94.00,265.00 129.09,238.27
             153.62,221.12 160.75,244.25 146.00,260.33
             120.62,286.88 116.25,293.38 93.41,322.71" fill="none" id="sumomoL" stroke="#ec8199" stroke-width="2" />

    <path d="M 152.00,78.00
           C 159.00,93.50 153.25,117.12 128.50,108.00
             120.12,103.50 121.75,100.00 110.50,110.50
             98.45,120.82 105.00,122.75 108.50,130.00
             113.75,150.88 94.25,159.12 81.31,153.81
             56.50,135.62 47.82,129.09 14.87,100.21
             15.34,99.13 15.82,98.07 16.31,97.00
             33.01,60.64 63.79,31.55 100.04,15.03
             109.50,23.50 142.25,65.00 152.00,78.00 Z" fill="#fe000b" id="mamomo" />

    <path d="M 100.04,15.03
           C 109.50,23.50 142.25,65.00 152.00,78.00
             159.00,93.50 153.25,117.12 128.50,108.00
             120.12,103.50 121.75,100.00 110.50,110.50
             98.45,120.82 105.00,122.75 108.50,130.00
             113.75,150.88 94.25,159.12 81.31,153.81
             56.50,135.62 47.82,129.09 14.87,100.21" fill="none" id="mamomoL" stroke="#c12020" stroke-width="2" />

    <path d="M 75.00,91.33
           C 62.88,93.25 58.50,87.25 61.00,75.75
             62.60,69.49 68.38,64.25 76.50,61.88
             87.92,59.62 94.25,63.75 90.67,77.00
             88.88,83.00 83.38,88.50 75.00,91.33 Z" fill="#ffffff" id="mamomoM" />

    <path d="M 196.50,239.38
           C 205.27,237.45 219.00,238.00 229.31,240.31
             234.36,235.09 236.55,232.36 239.56,229.75
             237.09,224.18 237.25,203.25 238.50,197.00
             263.27,195.00 309.82,229.45 324.88,243.37
             316.80,260.45 306.11,275.66 292.83,289.99
             282.15,301.50 263.02,314.84 249.00,322.22
             246.85,323.35 244.69,324.42 242.51,325.44
             220.91,302.73 196.18,256.73 196.50,239.38 Z" fill="#feba35" id="fumomo" />

    <path d="M 242.51,325.44
           C 220.91,302.73 196.18,256.73 196.50,239.38
             205.27,237.45 219.00,238.00 229.31,240.31
             234.36,235.09 236.55,232.36 239.56,229.75
             237.09,224.18 237.25,203.25 238.50,197.00
             263.27,195.00 309.82,229.45 324.88,243.37" fill="none" id="fumomoL" stroke="#e2941c" stroke-width="2" />

    <path d="M 237.39,13.45
           C 253.88,20.33 269.75,30.30 283.00,42.05
             301.85,58.76 316.50,79.08 326.39,101.33
             273.67,151.00 245.33,146.67 219.50,126.00
             183.27,90.36 201.27,50.91 237.39,13.45 Z" fill="#ffffff" id="pannna" />

    <path d="M 326.39,101.33
           C 273.67,151.00 245.33,146.67 219.50,126.00
             183.27,90.36 201.27,50.91 237.39,13.45" fill="none" id="pannnaL" stroke="black" stroke-width="2" />

    <path d="M 200.16,90.51
           C 198.37,77.13 202.01,63.50 209.43,49.89
             196.36,43.27 182.91,54.18 180.55,62.91
             175.55,85.82 197.64,91.36 200.16,90.51 Z
           M 274.55,159.45
           C 288.25,157.12 295.62,142.75 290.49,129.40
             274.36,138.91 261.04,141.78 249.27,140.20
             251.82,150.00 257.50,161.38 274.55,159.45 Z" fill="#000000" id="pannnaE" />

    <path d="M 256.61,85.00
           C 257.22,86.61 255.78,88.61 253.74,87.30
             253.00,86.83 252.55,86.17 252.13,85.39
             251.43,83.61 252.83,82.04 255.00,82.91
             255.61,83.30 256.41,84.45 256.61,85.00 Z
           M 78.25,80.12
           C 78.60,79.47 79.05,78.95 79.74,78.61
             81.69,77.59 82.86,79.12 81.96,80.70
             81.36,81.45 81.23,81.53 80.57,82.00
             78.78,83.02 77.72,82.02 78.25,80.12 Z
           M 62.18,275.00
           C 62.91,275.09 64.20,276.52 64.36,277.00
             64.61,278.65 64.03,280.11 62.22,280.04
             61.22,279.64 60.09,279.06 59.75,278.16
             59.26,276.43 60.09,275.00 62.18,275.00 Z
           M 257.75,259.88
           C 257.75,259.88 259.25,258.06 259.25,258.06
             261.24,257.31 262.72,258.56 262.22,260.69
             262.22,260.69 260.42,262.72 260.42,262.72
             258.72,263.41 257.19,262.06 257.75,259.88 Z
           M 265.25,117.15
           C 265.37,121.33 268.65,124.05 270.52,124.24
             270.52,124.24 271.43,128.69 271.43,128.69
             271.43,128.69 274.19,124.42 274.19,124.42
             277.07,124.06 280.31,120.73 280.31,118.11
             280.34,113.51 276.25,110.24 272.43,110.24
             269.12,110.29 265.25,113.60 265.25,117.15 Z
           M 222.18,59.82
           C 226.00,59.82 230.09,63.09 230.06,67.69
             230.06,70.31 226.82,73.64 223.94,74.00
             223.94,74.00 221.18,78.27 221.18,78.27
             221.18,78.27 220.27,73.82 220.27,73.82
             218.40,73.63 215.12,70.91 215.00,66.73
             215.00,63.18 218.87,59.87 222.18,59.82 Z
           M 113.17,61.42
           C 111.17,61.42 109.58,63.03 109.58,65.03
             109.58,67.03 111.17,68.62 113.17,68.62
             115.14,68.62 116.78,67.03 116.78,65.03
             116.78,63.06 115.14,61.42 113.17,61.42 Z
           M 68.46,113.38
           C 68.46,115.38 66.82,116.97 64.85,116.97
             62.85,116.97 61.26,115.38 61.26,113.38
             61.26,111.38 62.85,109.77 64.85,109.77
             66.82,109.77 68.46,111.41 68.46,113.38 Z
           M 93.95,294.61
           C 93.95,296.61 92.31,298.20 90.34,298.20
             88.34,298.20 86.75,296.61 86.75,294.61
             86.75,292.61 88.34,291.00 90.34,291.00
             92.31,291.00 93.95,292.64 93.95,294.61 Z
           M 45.30,245.91
           C 43.30,245.91 41.71,247.52 41.71,249.52
             41.71,251.52 43.30,253.11 45.30,253.11
             47.27,253.11 48.91,251.52 48.91,249.52
             48.91,247.55 47.27,245.91 45.30,245.91 Z
           M 277.34,227.36
           C 275.34,227.36 273.75,228.97 273.75,230.97
             273.75,232.97 275.34,234.56 277.34,234.56
             279.31,234.56 280.95,232.97 280.95,230.97
             280.95,229.00 279.31,227.36 277.34,227.36 Z
           M 233.96,278.34
           C 233.96,280.34 232.32,281.93 230.35,281.93
             228.35,281.93 226.75,280.34 226.75,278.34
             226.75,276.34 228.35,274.73 230.35,274.73
             232.32,274.73 233.96,276.37 233.96,278.34 Z" fill="#000000" id="en" />

    <path d="M 253.40,72.55
           C 260.00,75.50 264.12,80.62 267.12,86.38M 68.55,81.55
           C 70.28,75.87 76.04,70.49 81.36,68.36M 51.00,276.82
           C 50.73,280.82 58.18,288.27 62.45,288.36M 258.91,272.36
           C 262.55,271.27 269.88,265.00 271.64,259.18" fill="none" id="mouth" stroke="#000000" stroke-linecap="round" stroke-width="2" />
</svg>
